ply
format ascii 1.0
obj_info Pringles-00000.jpg
obj_info Pringles-00001.jpg
obj_info Pringles-00002.jpg
obj_info Pringles-00003.jpg
obj_info Pringles-00004.jpg
obj_info Pringles-00005.jpg
obj_info Pringles-00006.jpg
obj_info Pringles-00007.jpg
obj_info Pringles-00008.jpg
obj_info Pringles-00009.jpg
obj_info Pringles-00010.jpg
element vertex 130
property float x
property float y
property float z
property float nx
property float ny
property float nz
element face 96
property list uchar uint vertex_indices
element pass 11
property list uchar uint face_indices
property float m0
property float m1
property float m2
property float m3
property float m4
property float m5
property float m6
property float m7
property float m8
property float m9
property float m10
property float m11
property float m12
property float m13
property float m14
property float m15
property float x
property float y
property float w
property float h
property uchar tex_index
end_header
0.000000 0.000000 -0.115500 0.000000 0.000000 -1.000000
0.026870 0.026870 -0.115500 0.000000 0.000000 -1.000000
0.031596 0.021112 -0.115500 0.000000 0.000000 -1.000000
0.000000 0.000000 0.115500 0.000000 0.000000 1.000000
0.031596 0.021112 0.115500 0.000000 0.000000 1.000000
0.026870 0.026870 0.115500 0.000000 0.000000 1.000000
0.035107 0.014542 -0.115500 0.000000 0.000000 -1.000000
0.035107 0.014542 0.115500 0.000000 0.000000 1.000000
0.037270 0.007413 -0.115500 0.000000 0.000000 -1.000000
0.037270 0.007413 0.115500 0.000000 0.000000 1.000000
0.038000 0.000000 -0.115500 0.000000 0.000000 -1.000000
0.038000 -0.000000 0.115500 0.000000 0.000000 1.000000
0.037270 -0.007413 -0.115500 0.000000 0.000000 -1.000000
0.037270 -0.007413 0.115500 0.000000 0.000000 1.000000
0.035107 -0.014542 -0.115500 0.000000 0.000000 -1.000000
0.035107 -0.014542 0.115500 0.000000 0.000000 1.000000
0.031596 -0.021112 -0.115500 0.000000 0.000000 -1.000000
0.031596 -0.021112 0.115500 0.000000 0.000000 1.000000
0.026870 -0.026870 -0.115500 0.000000 0.000000 -1.000000
0.026870 -0.026870 0.115500 0.000000 0.000000 1.000000
0.021112 -0.031596 -0.115500 0.000000 0.000000 -1.000000
0.021112 -0.031596 0.115500 0.000000 0.000000 1.000000
0.014542 -0.035107 -0.115500 0.000000 0.000000 -1.000000
0.014542 -0.035107 0.115500 0.000000 0.000000 1.000000
0.007413 -0.037270 -0.115500 0.000000 0.000000 -1.000000
0.007413 -0.037270 0.115500 0.000000 0.000000 1.000000
-0.000000 -0.038000 -0.115500 0.000000 0.000000 -1.000000
0.000000 -0.038000 0.115500 0.000000 0.000000 1.000000
-0.007413 -0.037270 -0.115500 0.000000 0.000000 -1.000000
-0.007413 -0.037270 0.115500 0.000000 0.000000 1.000000
-0.014542 -0.035107 -0.115500 0.000000 0.000000 -1.000000
-0.014542 -0.035107 0.115500 0.000000 0.000000 1.000000
-0.021112 -0.031596 -0.115500 0.000000 0.000000 -1.000000
-0.021112 -0.031596 0.115500 0.000000 0.000000 1.000000
-0.026870 -0.026870 -0.115500 0.000000 0.000000 -1.000000
-0.026870 -0.026870 0.115500 0.000000 0.000000 1.000000
-0.031596 -0.021112 -0.115500 0.000000 0.000000 -1.000000
-0.031596 -0.021112 0.115500 0.000000 0.000000 1.000000
-0.035107 -0.014542 -0.115500 0.000000 0.000000 -1.000000
-0.035107 -0.014542 0.115500 0.000000 0.000000 1.000000
-0.037270 -0.007413 -0.115500 0.000000 0.000000 -1.000000
-0.037270 -0.007414 0.115500 0.000000 0.000000 1.000000
-0.038000 0.000000 -0.115500 0.000000 0.000000 -1.000000
-0.038000 -0.000000 0.115500 0.000000 0.000000 1.000000
-0.037270 0.007413 -0.115500 0.000000 0.000000 -1.000000
-0.037270 0.007413 0.115500 0.000000 0.000000 1.000000
-0.035107 0.014542 -0.115500 0.000000 0.000000 -1.000000
-0.035107 0.014542 0.115500 0.000000 0.000000 1.000000
-0.031596 0.021112 -0.115500 0.000000 0.000000 -1.000000
-0.031596 0.021111 0.115500 0.000000 0.000000 1.000000
-0.026870 0.026870 -0.115500 0.000000 0.000000 -1.000000
-0.026870 0.026870 0.115500 0.000000 0.000000 1.000000
-0.021112 0.031596 -0.115500 0.000000 0.000000 -1.000000
-0.021112 0.031596 0.115500 0.000000 0.000000 1.000000
-0.014542 0.035107 -0.115500 0.000000 0.000000 -1.000000
-0.014542 0.035107 0.115500 0.000000 0.000000 1.000000
-0.007413 0.037270 -0.115500 0.000000 0.000000 -1.000000
-0.007414 0.037270 0.115500 0.000000 0.000000 1.000000
0.000000 0.038000 -0.115500 0.000000 0.000000 -1.000000
-0.000000 0.038000 0.115500 0.000000 0.000000 1.000000
0.007413 0.037270 -0.115500 0.000000 0.000000 -1.000000
0.007413 0.037270 0.115500 0.000000 0.000000 1.000000
0.014542 0.035107 -0.115500 0.000000 0.000000 -1.000000
0.014542 0.035108 0.115500 0.000000 0.000000 1.000000
0.021112 0.031596 -0.115500 0.000000 0.000000 -1.000000
0.021111 0.031596 0.115500 0.000000 0.000000 1.000000
0.026870 0.026870 -0.115500 0.707083 0.707083 0.000000
0.026870 0.026870 0.115500 0.707083 0.707083 0.000000
0.031596 0.021112 0.115500 0.831446 0.555559 0.000000
0.031596 0.021112 -0.115500 0.831446 0.555559 0.000000
0.035107 0.014542 0.115500 0.923856 0.382672 0.000000
0.035107 0.014542 -0.115500 0.923856 0.382672 0.000000
0.037270 0.007413 0.115500 0.980773 0.195074 0.000000
0.037270 0.007413 -0.115500 0.980773 0.195074 0.000000
0.038000 -0.000000 0.115500 1.000000 0.000000 0.000000
0.038000 0.000000 -0.115500 1.000000 0.000000 0.000000
0.037270 -0.007413 0.115500 0.980773 -0.195074 0.000000
0.037270 -0.007413 -0.115500 0.980773 -0.195074 0.000000
0.035107 -0.014542 0.115500 0.923856 -0.382672 0.000000
0.035107 -0.014542 -0.115500 0.923856 -0.382672 0.000000
0.031596 -0.021112 0.115500 0.831446 -0.555559 0.000000
0.031596 -0.021112 -0.115500 0.831446 -0.555559 0.000000
0.026870 -0.026870 0.115500 0.707083 -0.707083 0.000000
0.026870 -0.026870 -0.115500 0.707083 -0.707083 0.000000
0.021112 -0.031596 0.115500 0.555559 -0.831446 0.000000
0.021112 -0.031596 -0.115500 0.555559 -0.831446 0.000000
0.014542 -0.035107 0.115500 0.382672 -0.923856 0.000000
0.014542 -0.035107 -0.115500 0.382672 -0.923856 0.000000
0.007413 -0.037270 0.115500 0.195074 -0.980773 0.000000
0.007413 -0.037270 -0.115500 0.195074 -0.980773 0.000000
0.000000 -0.038000 0.115500 0.000000 -1.000000 0.000000
-0.000000 -0.038000 -0.115500 0.000000 -1.000000 0.000000
-0.007413 -0.037270 0.115500 -0.195074 -0.980773 0.000000
-0.007413 -0.037270 -0.115500 -0.195074 -0.980773 0.000000
-0.014542 -0.035107 0.115500 -0.382672 -0.923856 0.000000
-0.014542 -0.035107 -0.115500 -0.382672 -0.923856 0.000000
-0.021112 -0.031596 0.115500 -0.555559 -0.831446 0.000000
-0.021112 -0.031596 -0.115500 -0.555559 -0.831446 0.000000
-0.026870 -0.026870 0.115500 -0.707083 -0.707083 0.000000
-0.026870 -0.026870 -0.115500 -0.707083 -0.707083 0.000000
-0.031596 -0.021112 0.115500 -0.831446 -0.555559 0.000000
-0.031596 -0.021112 -0.115500 -0.831446 -0.555559 0.000000
-0.035107 -0.014542 0.115500 -0.923856 -0.382672 0.000000
-0.035107 -0.014542 -0.115500 -0.923856 -0.382672 0.000000
-0.037270 -0.007414 0.115500 -0.980773 -0.195074 0.000000
-0.037270 -0.007413 -0.115500 -0.980773 -0.195074 0.000000
-0.038000 -0.000000 0.115500 -1.000000 0.000000 0.000000
-0.038000 0.000000 -0.115500 -1.000000 0.000000 0.000000
-0.037270 0.007413 0.115500 -0.980773 0.195074 0.000000
-0.037270 0.007413 -0.115500 -0.980773 0.195074 0.000000
-0.035107 0.014542 0.115500 -0.923856 0.382672 0.000000
-0.035107 0.014542 -0.115500 -0.923856 0.382672 0.000000
-0.031596 0.021111 0.115500 -0.831446 0.555559 0.000000
-0.031596 0.021112 -0.115500 -0.831446 0.555559 0.000000
-0.026870 0.026870 0.115500 -0.707083 0.707083 0.000000
-0.026870 0.026870 -0.115500 -0.707083 0.707083 0.000000
-0.021112 0.031596 0.115500 -0.555559 0.831446 0.000000
-0.021112 0.031596 -0.115500 -0.555559 0.831446 0.000000
-0.014542 0.035107 0.115500 -0.382672 0.923856 0.000000
-0.014542 0.035107 -0.115500 -0.382672 0.923856 0.000000
-0.007414 0.037270 0.115500 -0.195074 0.980773 0.000000
-0.007413 0.037270 -0.115500 -0.195074 0.980773 0.000000
-0.000000 0.038000 0.115500 0.000000 1.000000 0.000000
0.000000 0.038000 -0.115500 0.000000 1.000000 0.000000
0.007413 0.037270 0.115500 0.195074 0.980773 0.000000
0.007413 0.037270 -0.115500 0.195074 0.980773 0.000000
0.014542 0.035108 0.115500 0.382672 0.923856 0.000000
0.014542 0.035107 -0.115500 0.382672 0.923856 0.000000
0.021111 0.031596 0.115500 0.555559 0.831446 0.000000
0.021112 0.031596 -0.115500 0.555559 0.831446 0.000000
3 0 1 2
3 3 4 5
3 0 2 6
3 3 7 4
3 0 6 8
3 3 9 7
3 0 8 10
3 3 11 9
3 0 10 12
3 3 13 11
3 0 12 14
3 3 15 13
3 0 14 16
3 3 17 15
3 0 16 18
3 3 19 17
3 0 18 20
3 3 21 19
3 0 20 22
3 3 23 21
3 0 22 24
3 3 25 23
3 0 24 26
3 3 27 25
3 0 26 28
3 3 29 27
3 0 28 30
3 3 31 29
3 0 30 32
3 3 33 31
3 0 32 34
3 3 35 33
3 0 34 36
3 3 37 35
3 0 36 38
3 3 39 37
3 0 38 40
3 3 41 39
3 0 40 42
3 3 43 41
3 0 42 44
3 3 45 43
3 0 44 46
3 3 47 45
3 0 46 48
3 3 49 47
3 0 48 50
3 3 51 49
3 0 50 52
3 3 53 51
3 0 52 54
3 3 55 53
3 0 54 56
3 3 57 55
3 0 56 58
3 3 59 57
3 0 58 60
3 3 61 59
3 0 60 62
3 3 63 61
3 0 62 64
3 3 65 63
3 1 0 64
3 3 5 65
4 66 67 68 69
4 69 68 70 71
4 71 70 72 73
4 73 72 74 75
4 75 74 76 77
4 77 76 78 79
4 79 78 80 81
4 81 80 82 83
4 83 82 84 85
4 85 84 86 87
4 87 86 88 89
4 89 88 90 91
4 91 90 92 93
4 93 92 94 95
4 95 94 96 97
4 97 96 98 99
4 99 98 100 101
4 101 100 102 103
4 103 102 104 105
4 105 104 106 107
4 107 106 108 109
4 109 108 110 111
4 111 110 112 113
4 113 112 114 115
4 115 114 116 117
4 117 116 118 119
4 119 118 120 121
4 121 120 122 123
4 123 122 124 125
4 125 124 126 127
4 127 126 128 129
4 67 66 129 128
5 79 80 81 82 83 0.598293 0.811681 0.849392 0.816083 -1.322528 0.338927 0.367897 0.353470 -0.021820 1.717962 -0.475902 -0.457239 -0.043021 -0.317815 0.671874 0.841604 0.454950 0.180660 0.038500 0.222525 0
3 76 77 78 1.345161 0.379959 0.353483 0.339621 -0.545109 0.844043 0.841273 0.808282 -0.030180 1.693610 -0.500608 -0.480976 -0.027183 -0.310015 0.662227 0.832336 0.471882 0.183594 0.026378 0.218240 1
3 84 85 86 -0.424852 0.869929 0.870294 0.836165 -1.388032 -0.290094 -0.282465 -0.271388 -0.019532 1.698282 -0.496085 -0.476631 -0.031907 -0.311995 0.660105 0.830297 0.466329 0.181411 0.025759 0.218450 2
3 87 88 89 -1.093823 0.594665 0.587249 0.564220 -0.954398 -0.705940 -0.699362 -0.671936 -0.013801 1.695027 -0.499331 -0.479749 -0.022998 -0.306543 0.655112 0.825500 0.471427 0.183102 0.024455 0.219241 3
3 90 91 92 -1.418565 0.166658 0.180383 0.173309 -0.307385 -0.914532 -0.893282 -0.858252 -0.026487 1.691434 -0.502800 -0.483082 -0.027977 -0.306814 0.662285 0.832391 0.464466 0.185644 0.026720 0.217624 4
4 64 93 94 95 -1.183275 -0.516801 -0.552084 -0.530433 0.840887 -0.692934 -0.748135 -0.718796 -0.016771 1.725645 -0.467756 -0.449413 -0.030832 -0.316799 0.677450 0.846961 0.465665 0.182693 0.030691 0.221051 5
2 74 75 1.450978 0.055750 0.007441 0.007149 -0.002140 0.918845 0.914207 0.878356 -0.046586 1.696381 -0.497462 -0.477954 -0.025881 -0.311071 0.671483 0.841229 0.479286 0.186046 0.021104 0.216915 6
2 72 73 1.382978 -0.243869 -0.266604 -0.256149 0.440407 0.882981 0.875650 0.841311 -0.030437 1.698813 -0.495437 -0.476008 -0.024180 -0.308028 0.665304 0.835292 0.484575 0.185660 0.018133 0.219715 7
2 70 71 1.168607 -0.462715 -0.546567 -0.525133 0.860324 0.711746 0.757564 0.727856 -0.041367 1.733322 -0.458977 -0.440978 -0.027194 -0.321707 0.688553 0.857629 0.484679 0.183697 0.018789 0.221081 8
3 67 68 69 0.492539 -0.831648 -0.861881 -0.828082 1.365371 0.332562 0.325111 0.312362 -0.026060 1.709636 -0.484523 -0.465522 -0.028735 -0.311982 0.668142 0.838019 0.477147 0.183352 0.024448 0.222002 9
1 66 0.031529 -0.899390 -0.919104 -0.883061 1.450983 0.059647 0.030561 0.029362 -0.034156 1.706644 -0.487455 -0.468339 -0.026089 -0.310217 0.663760 0.833809 0.487883 0.184046 0.012154 0.219972 10
